<mxfile host="app.diagrams.net" modified="2021-08-01T11:54:29.317Z" agent="5.0 (Windows NT 10.0; Win64; x64) AppleWebKit/537.36 (KHTML, like Gecko) Chrome/92.0.4515.107 Safari/537.36" etag="pNyUOAI0SY_4xThGYlU4" version="14.1.9" type="github">
  <diagram name="Page-1" id="822b0af5-4adb-64df-f703-e8dfc1f81529">
    <mxGraphModel dx="2062" dy="1132" grid="1" gridSize="10" guides="1" tooltips="1" connect="1" arrows="1" fold="1" page="1" pageScale="1" pageWidth="1100" pageHeight="850" background="none" math="0" shadow="0">
      <root>
        <mxCell id="0" />
        <mxCell id="1" parent="0" />
        <mxCell id="qOrP1CEsBi-IvU5VoSrC-30" value="" style="rounded=0;whiteSpace=wrap;html=1;" vertex="1" parent="1">
          <mxGeometry x="170" y="460" width="720" height="180" as="geometry" />
        </mxCell>
        <mxCell id="qOrP1CEsBi-IvU5VoSrC-4" value="vercel" style="rounded=0;whiteSpace=wrap;html=1;" vertex="1" parent="1">
          <mxGeometry x="170" y="120" width="160" height="210" as="geometry" />
        </mxCell>
        <mxCell id="qOrP1CEsBi-IvU5VoSrC-1" value="映画API&lt;br&gt;（外部）" style="rounded=0;whiteSpace=wrap;html=1;" vertex="1" parent="1">
          <mxGeometry x="190" y="40" width="120" height="60" as="geometry" />
        </mxCell>
        <mxCell id="qOrP1CEsBi-IvU5VoSrC-2" value="Next.js" style="rounded=0;whiteSpace=wrap;html=1;" vertex="1" parent="1">
          <mxGeometry x="190" y="140" width="120" height="60" as="geometry" />
        </mxCell>
        <mxCell id="qOrP1CEsBi-IvU5VoSrC-3" value="" style="endArrow=classic;html=1;entryX=0.5;entryY=1;entryDx=0;entryDy=0;exitX=0.5;exitY=0;exitDx=0;exitDy=0;" edge="1" parent="1" source="qOrP1CEsBi-IvU5VoSrC-2" target="qOrP1CEsBi-IvU5VoSrC-1">
          <mxGeometry width="50" height="50" relative="1" as="geometry">
            <mxPoint x="1000" y="420" as="sourcePoint" />
            <mxPoint x="1050" y="370" as="targetPoint" />
          </mxGeometry>
        </mxCell>
        <mxCell id="qOrP1CEsBi-IvU5VoSrC-6" value="aws" style="rounded=0;whiteSpace=wrap;html=1;" vertex="1" parent="1">
          <mxGeometry x="350" y="120" width="410" height="210" as="geometry" />
        </mxCell>
        <mxCell id="qOrP1CEsBi-IvU5VoSrC-7" value="db" style="shape=cylinder3;whiteSpace=wrap;html=1;boundedLbl=1;backgroundOutline=1;size=15;" vertex="1" parent="1">
          <mxGeometry x="520" y="130" width="60" height="80" as="geometry" />
        </mxCell>
        <mxCell id="qOrP1CEsBi-IvU5VoSrC-8" value="API&lt;br&gt;(golang)" style="rounded=0;whiteSpace=wrap;html=1;" vertex="1" parent="1">
          <mxGeometry x="370" y="140" width="120" height="60" as="geometry" />
        </mxCell>
        <mxCell id="qOrP1CEsBi-IvU5VoSrC-9" value="Actor" style="shape=umlActor;verticalLabelPosition=bottom;verticalAlign=top;html=1;outlineConnect=0;" vertex="1" parent="1">
          <mxGeometry x="40" y="140" width="30" height="60" as="geometry" />
        </mxCell>
        <mxCell id="qOrP1CEsBi-IvU5VoSrC-10" value="" style="endArrow=classic;startArrow=classic;html=1;entryX=0;entryY=0.5;entryDx=0;entryDy=0;exitX=0.5;exitY=0.5;exitDx=0;exitDy=0;exitPerimeter=0;" edge="1" parent="1" source="qOrP1CEsBi-IvU5VoSrC-9" target="qOrP1CEsBi-IvU5VoSrC-2">
          <mxGeometry width="50" height="50" relative="1" as="geometry">
            <mxPoint x="70" y="210" as="sourcePoint" />
            <mxPoint x="120" y="160" as="targetPoint" />
          </mxGeometry>
        </mxCell>
        <mxCell id="qOrP1CEsBi-IvU5VoSrC-12" value="" style="endArrow=classic;startArrow=classic;html=1;entryX=0;entryY=0.5;entryDx=0;entryDy=0;exitX=1;exitY=0.5;exitDx=0;exitDy=0;" edge="1" parent="1" source="qOrP1CEsBi-IvU5VoSrC-2" target="qOrP1CEsBi-IvU5VoSrC-8">
          <mxGeometry width="50" height="50" relative="1" as="geometry">
            <mxPoint x="350" y="120" as="sourcePoint" />
            <mxPoint x="400" y="70" as="targetPoint" />
          </mxGeometry>
        </mxCell>
        <mxCell id="qOrP1CEsBi-IvU5VoSrC-13" value="" style="endArrow=classic;startArrow=classic;html=1;entryX=0;entryY=0.5;entryDx=0;entryDy=0;entryPerimeter=0;" edge="1" parent="1" target="qOrP1CEsBi-IvU5VoSrC-7">
          <mxGeometry width="50" height="50" relative="1" as="geometry">
            <mxPoint x="490" y="170" as="sourcePoint" />
            <mxPoint x="380" y="180" as="targetPoint" />
          </mxGeometry>
        </mxCell>
        <mxCell id="qOrP1CEsBi-IvU5VoSrC-14" value="firebase&lt;br&gt;(auth)" style="rounded=0;whiteSpace=wrap;html=1;" vertex="1" parent="1">
          <mxGeometry x="370" y="40" width="120" height="60" as="geometry" />
        </mxCell>
        <mxCell id="qOrP1CEsBi-IvU5VoSrC-15" value="" style="endArrow=classic;startArrow=classic;html=1;entryX=0;entryY=1;entryDx=0;entryDy=0;exitX=1;exitY=0;exitDx=0;exitDy=0;" edge="1" parent="1" source="qOrP1CEsBi-IvU5VoSrC-2" target="qOrP1CEsBi-IvU5VoSrC-14">
          <mxGeometry width="50" height="50" relative="1" as="geometry">
            <mxPoint x="320" y="200" as="sourcePoint" />
            <mxPoint x="380" y="200" as="targetPoint" />
          </mxGeometry>
        </mxCell>
        <mxCell id="qOrP1CEsBi-IvU5VoSrC-29" value="" style="edgeStyle=orthogonalEdgeStyle;rounded=0;orthogonalLoop=1;jettySize=auto;html=1;" edge="1" parent="1" source="qOrP1CEsBi-IvU5VoSrC-17" target="qOrP1CEsBi-IvU5VoSrC-28">
          <mxGeometry relative="1" as="geometry" />
        </mxCell>
        <mxCell id="qOrP1CEsBi-IvU5VoSrC-17" value="閲覧&lt;br&gt;（フォロワー）" style="rounded=0;whiteSpace=wrap;html=1;" vertex="1" parent="1">
          <mxGeometry x="190" y="480" width="120" height="60" as="geometry" />
        </mxCell>
        <mxCell id="qOrP1CEsBi-IvU5VoSrC-18" value="API&lt;br&gt;(golang)" style="rounded=0;whiteSpace=wrap;html=1;" vertex="1" parent="1">
          <mxGeometry x="370" y="240" width="120" height="60" as="geometry" />
        </mxCell>
        <mxCell id="qOrP1CEsBi-IvU5VoSrC-19" value="db" style="shape=cylinder3;whiteSpace=wrap;html=1;boundedLbl=1;backgroundOutline=1;size=15;" vertex="1" parent="1">
          <mxGeometry x="520" y="230" width="60" height="80" as="geometry" />
        </mxCell>
        <mxCell id="qOrP1CEsBi-IvU5VoSrC-20" value="" style="endArrow=classic;startArrow=classic;html=1;entryX=0;entryY=0.5;entryDx=0;entryDy=0;exitX=1;exitY=0.5;exitDx=0;exitDy=0;" edge="1" parent="1" source="qOrP1CEsBi-IvU5VoSrC-2" target="qOrP1CEsBi-IvU5VoSrC-18">
          <mxGeometry width="50" height="50" relative="1" as="geometry">
            <mxPoint x="320" y="180" as="sourcePoint" />
            <mxPoint x="380" y="180" as="targetPoint" />
          </mxGeometry>
        </mxCell>
        <mxCell id="qOrP1CEsBi-IvU5VoSrC-23" value="user" style="text;html=1;strokeColor=none;fillColor=none;align=center;verticalAlign=middle;whiteSpace=wrap;rounded=0;" vertex="1" parent="1">
          <mxGeometry x="600" y="160" width="40" height="20" as="geometry" />
        </mxCell>
        <mxCell id="qOrP1CEsBi-IvU5VoSrC-24" style="edgeStyle=orthogonalEdgeStyle;rounded=0;orthogonalLoop=1;jettySize=auto;html=1;exitX=0.5;exitY=1;exitDx=0;exitDy=0;" edge="1" parent="1" source="qOrP1CEsBi-IvU5VoSrC-23" target="qOrP1CEsBi-IvU5VoSrC-23">
          <mxGeometry relative="1" as="geometry" />
        </mxCell>
        <mxCell id="qOrP1CEsBi-IvU5VoSrC-26" value="映画" style="text;html=1;strokeColor=none;fillColor=none;align=center;verticalAlign=middle;whiteSpace=wrap;rounded=0;" vertex="1" parent="1">
          <mxGeometry x="600" y="260" width="40" height="20" as="geometry" />
        </mxCell>
        <mxCell id="qOrP1CEsBi-IvU5VoSrC-27" value="" style="endArrow=classic;startArrow=classic;html=1;entryX=1;entryY=0.5;entryDx=0;entryDy=0;exitX=0;exitY=0.5;exitDx=0;exitDy=0;exitPerimeter=0;" edge="1" parent="1" source="qOrP1CEsBi-IvU5VoSrC-19" target="qOrP1CEsBi-IvU5VoSrC-18">
          <mxGeometry width="50" height="50" relative="1" as="geometry">
            <mxPoint x="500" y="180" as="sourcePoint" />
            <mxPoint x="530" y="180" as="targetPoint" />
          </mxGeometry>
        </mxCell>
        <mxCell id="qOrP1CEsBi-IvU5VoSrC-28" value="認証ページ" style="rounded=0;whiteSpace=wrap;html=1;" vertex="1" parent="1">
          <mxGeometry x="190" y="380" width="120" height="60" as="geometry" />
        </mxCell>
        <mxCell id="qOrP1CEsBi-IvU5VoSrC-31" value="投稿" style="rounded=0;whiteSpace=wrap;html=1;" vertex="1" parent="1">
          <mxGeometry x="330" y="560" width="120" height="60" as="geometry" />
        </mxCell>
        <mxCell id="qOrP1CEsBi-IvU5VoSrC-33" value="ランキング" style="rounded=0;whiteSpace=wrap;html=1;" vertex="1" parent="1">
          <mxGeometry x="470" y="560" width="120" height="60" as="geometry" />
        </mxCell>
        <mxCell id="qOrP1CEsBi-IvU5VoSrC-34" value="ランキング" style="rounded=0;whiteSpace=wrap;html=1;" vertex="1" parent="1">
          <mxGeometry x="610" y="560" width="120" height="60" as="geometry" />
        </mxCell>
        <mxCell id="qOrP1CEsBi-IvU5VoSrC-35" value="検索" style="rounded=0;whiteSpace=wrap;html=1;" vertex="1" parent="1">
          <mxGeometry x="610" y="560" width="120" height="60" as="geometry" />
        </mxCell>
        <mxCell id="qOrP1CEsBi-IvU5VoSrC-37" value="ユーザー" style="rounded=0;whiteSpace=wrap;html=1;" vertex="1" parent="1">
          <mxGeometry x="750" y="560" width="120" height="60" as="geometry" />
        </mxCell>
        <mxCell id="qOrP1CEsBi-IvU5VoSrC-38" value="" style="endArrow=classic;startArrow=classic;html=1;entryX=0.5;entryY=0;entryDx=0;entryDy=0;exitX=1;exitY=0.5;exitDx=0;exitDy=0;" edge="1" parent="1" source="qOrP1CEsBi-IvU5VoSrC-17" target="qOrP1CEsBi-IvU5VoSrC-31">
          <mxGeometry width="50" height="50" relative="1" as="geometry">
            <mxPoint x="50" y="520" as="sourcePoint" />
            <mxPoint x="100" y="470" as="targetPoint" />
          </mxGeometry>
        </mxCell>
        <mxCell id="qOrP1CEsBi-IvU5VoSrC-39" value="" style="endArrow=classic;startArrow=classic;html=1;entryX=0.5;entryY=0;entryDx=0;entryDy=0;exitX=1;exitY=0.5;exitDx=0;exitDy=0;" edge="1" parent="1" source="qOrP1CEsBi-IvU5VoSrC-17" target="qOrP1CEsBi-IvU5VoSrC-37">
          <mxGeometry width="50" height="50" relative="1" as="geometry">
            <mxPoint x="320" y="520" as="sourcePoint" />
            <mxPoint x="400" y="570" as="targetPoint" />
          </mxGeometry>
        </mxCell>
        <mxCell id="qOrP1CEsBi-IvU5VoSrC-40" value="" style="endArrow=classic;startArrow=classic;html=1;entryX=0.5;entryY=0;entryDx=0;entryDy=0;exitX=1;exitY=0.5;exitDx=0;exitDy=0;" edge="1" parent="1" source="qOrP1CEsBi-IvU5VoSrC-17" target="qOrP1CEsBi-IvU5VoSrC-35">
          <mxGeometry width="50" height="50" relative="1" as="geometry">
            <mxPoint x="330" y="530" as="sourcePoint" />
            <mxPoint x="410" y="580" as="targetPoint" />
          </mxGeometry>
        </mxCell>
        <mxCell id="qOrP1CEsBi-IvU5VoSrC-41" value="" style="endArrow=classic;startArrow=classic;html=1;entryX=0.5;entryY=0;entryDx=0;entryDy=0;exitX=1;exitY=0.5;exitDx=0;exitDy=0;" edge="1" parent="1" source="qOrP1CEsBi-IvU5VoSrC-17" target="qOrP1CEsBi-IvU5VoSrC-33">
          <mxGeometry width="50" height="50" relative="1" as="geometry">
            <mxPoint x="340" y="540" as="sourcePoint" />
            <mxPoint x="420" y="590" as="targetPoint" />
          </mxGeometry>
        </mxCell>
      </root>
    </mxGraphModel>
  </diagram>
</mxfile>
